<svg width="24" height="24" viewBox="0 0 24 24" fill="none"
  xmlns="http://www.w3.org/2000/svg">
  <path fill-rule="evenodd" clip-rule="evenodd" d="M2 13.4572L7.41563 18.8729L7.44052 18.848C8.28502 17.2627 10.0277 15.0041 12.2893 12.6408C11.5931 11.9968 10.9173 11.5128 10.4101 11.2768L10.3281 11.1948L12.1814 9.34147L12.2634 9.42346C12.4987 9.92917 12.9805 10.6024 13.6216 11.2964C15.9133 9.06311 18.1336 7.29663 19.7694 6.33893L14.4305 1C13.6449 2.75024 11.648 5.39316 8.99613 8.04502C6.36885 10.6723 3.75034 12.6567 2 13.4572ZM12.1814 14.1072L12.9708 13.3179C13.6443 14.0365 14.1508 14.7381 14.394 15.2607L14.476 15.3428L16.3294 13.4894L16.2474 13.4074C15.7247 13.1642 15.0231 12.6577 14.3045 11.9842L15.2262 11.0624L22.5072 17.0196L18.1386 21.3882L12.1814 14.1072ZM12.1594 19.9954H6.13891L4.61163 22H13.6866L12.1594 19.9954Z" fill="currentColor"/>
</svg>
