<svg width="24" height="24" viewBox="0 0 24 24" fill="none" xmlns="http://www.w3.org/2000/svg">
<g clip-path="url(#clip0_331_763)">
<path d="M9.69961 7.1L9.39961 8H14.6996L13.0996 3.3L12.6996 2H11.3996L9.69961 7.1Z" fill="currentColor"/>
<path d="M9.39961 10L12.0996 18.2L14.6996 10H9.39961Z" fill="currentColor"/>
<path d="M16.7996 8H22.4996C22.4996 7.9 22.3996 7.9 22.3996 7.8L18.0996 2.6C17.9996 2.5 17.8996 2.3 17.6996 2.2C17.5996 2.1 17.3996 2 17.1996 2C16.9996 2 16.8996 2 16.6996 2H14.7996L16.7996 8Z" fill="currentColor" />
<path d="M16.7996 10L13.1996 21.1C13.2996 21 13.3996 20.9 13.3996 20.9L22.3996 10.2C22.3996 10.1 22.4996 10.1 22.4996 10H16.7996Z" fill="currentColor"/>
<path class="active-color" d="M7.29961 8L9.09961 2.7L9.29961 2H7.39961C7.29961 2 7.09961 2 6.89961 2.1C6.69961 2.1 6.59961 2.2 6.39961 2.3C6.29961 2.4 6.19961 2.5 6.09961 2.6L1.69961 7.9L1.59961 8H7.29961Z" fill="currentColor"/>
<path class="active-color" d="M7.29961 10H1.59961C1.59961 10.1 1.69961 10.1 1.69961 10.2L10.6996 21C10.7996 21.1 10.7996 21.2 10.8996 21.3L7.29961 10Z" fill="currentColor"/>
</g>
<defs>
<clipPath id="clip0_331_763">
<rect width="20.9" height="19.2" fill="white" transform="translate(1.59961 2)"/>
</clipPath>
</defs>
</svg>
