<svg width="40" height="40" viewBox="0 0 40 40" fill="none" xmlns="http://www.w3.org/2000/svg">
<g clip-path="url(#clip0_1497_31412)">
<path d="M32 0H8C3.58172 0 0 3.58172 0 8V32C0 36.4183 3.58172 40 8 40H32C36.4183 40 40 36.4183 40 32V8C40 3.58172 36.4183 0 32 0Z" fill="#ED5AD5"/>
<path d="M8.36096 15.1042L8.33496 15.1022V21.0542C8.33496 27.7812 13.891 33.2502 20.794 33.3782C22.931 33.4182 24.952 32.9242 26.734 32.0282C26.88 31.9552 27.023 31.8792 27.164 31.8012C31.988 29.1292 34.016 23.0362 31.974 16.4692C31.468 14.8412 30.608 15.5722 29.436 14.2062C28.993 13.6892 31.095 14.3222 30.209 14.4822C25.799 15.2782 27.711 20.1452 27.705 21.8872C27.695 25.0192 25.183 27.5932 21.439 27.5932C17.423 27.5932 14.228 25.0372 14.228 21.6282V15.5962L14.247 15.5942C14.237 14.9702 14.352 14.4102 14.598 13.9902" fill="#1A1A1B"/>
<path d="M26.4931 25.3701C27.0021 24.8721 27.0631 24.3821 27.3091 23.7681C27.3861 23.5771 27.5331 23.4241 27.7031 23.2971C28.0611 23.0301 28.0521 22.4201 27.9731 21.9301C27.9181 21.5901 28.0141 21.2401 28.2401 20.9731C28.5781 20.5731 28.3511 19.8651 28.2971 19.7431C28.0531 19.1861 28.0101 19.0091 27.9031 18.8151C27.8691 18.7551 27.8511 18.6891 27.8611 18.6021C27.8621 18.5791 27.8661 18.5621 27.8671 18.5441V18.5361C27.8761 18.4791 27.8801 18.4411 27.8821 18.4161C27.9641 18.2241 28.4841 16.9201 27.4011 16.4781C27.3781 16.4641 27.3521 16.4551 27.3261 16.4461C27.3261 16.4461 27.3331 16.4191 27.3381 16.3711C27.3881 16.0691 27.5171 14.9601 26.8001 14.8861C26.5151 14.8571 26.2651 14.7031 26.0591 14.5131C25.9651 14.4261 25.8481 14.3551 25.7061 14.3351C25.4601 14.3001 25.2291 14.1891 25.0481 14.0261C24.6981 13.7121 24.0811 13.3011 23.2551 13.3031C23.0391 13.3031 22.8261 13.2571 22.6361 13.1591C22.3571 13.0151 22.0931 13.0601 21.9011 13.1381H21.8981C21.7231 12.9931 21.4841 12.8821 21.1951 12.9831C21.0301 12.9061 20.8751 12.9041 20.7381 12.9421C20.5551 12.9921 20.3631 12.9891 20.1751 12.9591C20.0461 12.9391 19.9021 12.9471 19.7471 13.0071C19.5471 13.0851 19.3311 13.1081 19.1151 13.0851C18.2941 12.9961 17.6361 13.3401 17.2541 13.6151C17.0561 13.7581 16.8151 13.8431 16.5661 13.8531C16.4251 13.8591 16.3021 13.9161 16.2001 13.9921C15.9741 14.1601 15.7081 14.2861 15.4201 14.2851C14.7011 14.2841 14.7111 15.3951 14.7291 15.7031C14.7291 15.7531 14.7331 15.7811 14.7331 15.7811C14.7061 15.7871 14.6791 15.7931 14.6551 15.8021C13.5311 16.1301 13.9141 17.4821 13.9751 17.6811C13.9741 17.7061 13.9751 17.7441 13.9741 17.8021V17.8101C13.9731 17.8281 13.9741 17.8451 13.9741 17.8681C13.9741 17.9591 13.9501 18.0231 13.9101 18.0781C13.7841 18.2571 13.5051 18.3631 13.4211 18.9571C13.4001 19.1021 13.3991 19.2251 13.4091 19.3281C13.3501 19.6111 13.3971 19.9491 13.5211 20.1941C13.6441 20.4391 13.7971 20.7361 13.6611 20.9731C13.4311 21.3741 13.3541 21.8271 13.4321 22.0661C13.5431 22.4071 13.9081 22.4421 13.9661 22.6281C13.9921 22.7111 14.1221 23.0921 14.1511 23.1731C14.7111 24.6861 15.5221 25.4451 16.0921 26.0031C17.6361 27.5141 22.3921 29.3861 26.4941 25.3701H26.4931Z" fill="white"/>
<path d="M20.9541 28.0603C18.6961 28.0603 16.7851 27.0593 15.9031 26.1963L15.8461 26.1403C15.2611 25.5693 14.4601 24.7873 13.8981 23.2673C13.8671 23.1843 13.7351 22.7933 13.7081 22.7083C13.7081 22.7203 13.6581 22.6873 13.6211 22.6643C13.4811 22.5733 13.2681 22.4373 13.1751 22.1503C13.0661 21.8183 13.1671 21.2913 13.4261 20.8393C13.4891 20.7293 13.3701 20.4933 13.2831 20.3213C13.1331 20.0223 13.0791 19.6423 13.1371 19.3143C13.1281 19.1903 13.1341 19.0573 13.1541 18.9183C13.2301 18.3813 13.4551 18.1603 13.6051 18.0133C13.6371 17.9823 13.6681 17.9543 13.6901 17.9223C13.6991 17.9093 13.7051 17.9013 13.7051 17.8693C13.7051 17.8643 13.7051 17.8013 13.7051 17.7953V17.7503C13.7051 17.7383 13.7051 17.7273 13.7051 17.7173C13.6291 17.4513 13.4701 16.7303 13.7741 16.1683C13.9211 15.8963 14.1501 15.7003 14.4561 15.5843C14.4491 15.2453 14.4871 14.6203 14.8181 14.2703C14.9761 14.1033 15.1841 14.0153 15.4201 14.0153H15.4221C15.6181 14.0153 15.8251 13.9343 16.0391 13.7753C16.2011 13.6553 16.3741 13.5903 16.5551 13.5833C16.7471 13.5753 16.9391 13.5093 17.0961 13.3963C17.5371 13.0783 18.2491 12.7213 19.1431 12.8173C19.3201 12.8363 19.4951 12.8153 19.6481 12.7563C19.8341 12.6843 20.0241 12.6623 20.2161 12.6933C20.3901 12.7203 20.5381 12.7173 20.6651 12.6823C20.8481 12.6323 21.0301 12.6373 21.2081 12.6993C21.4061 12.6543 21.6641 12.6593 21.9431 12.8393C22.2241 12.7623 22.5021 12.7893 22.7571 12.9203C22.9041 12.9963 23.0691 13.0353 23.2491 13.0353C23.2521 13.0353 23.2541 13.0353 23.2571 13.0353C24.1531 13.0353 24.8211 13.4653 25.2241 13.8273C25.3691 13.9573 25.5521 14.0433 25.7411 14.0703C25.9221 14.0963 26.0891 14.1793 26.2381 14.3173C26.4341 14.4983 26.6311 14.6003 26.8231 14.6193C27.0591 14.6433 27.2571 14.7533 27.3971 14.9363C27.6871 15.3163 27.6621 15.9333 27.6181 16.2833C27.9101 16.4303 28.1171 16.6493 28.2351 16.9353C28.4781 17.5273 28.2451 18.2253 28.1421 18.4813C28.1391 18.5063 28.1351 18.5373 28.1301 18.5753C28.1301 18.5753 28.1301 18.5883 28.1281 18.6023C28.1221 18.6593 28.1261 18.6683 28.1331 18.6813C28.1991 18.8023 28.2411 18.9073 28.3041 19.0673C28.3571 19.2003 28.4261 19.3763 28.5391 19.6343C28.5431 19.6433 28.9291 20.5693 28.4411 21.1463C28.2671 21.3523 28.1921 21.6213 28.2351 21.8863C28.3631 22.6833 28.2371 23.2303 27.8601 23.5123C27.7041 23.6293 27.6041 23.7453 27.5551 23.8673C27.4971 24.0123 27.4501 24.1493 27.4041 24.2823C27.2521 24.7233 27.1081 25.1403 26.6771 25.5623C24.7791 27.4203 22.7531 28.0593 20.9491 28.0593L20.9541 28.0603ZM15.4201 14.5553C15.3311 14.5553 15.2661 14.5823 15.2101 14.6423C15.0221 14.8413 14.9791 15.3303 14.9991 15.6883C14.9991 15.7273 15.0011 15.7423 15.0011 15.7473C15.0161 15.8843 14.9271 16.0143 14.7931 16.0443C14.7781 16.0473 14.7621 16.0503 14.7481 16.0563C14.5031 16.1283 14.3451 16.2473 14.2491 16.4263C14.0211 16.8483 14.1961 17.4813 14.2341 17.6043C14.2431 17.6343 14.2471 17.6653 14.2461 17.6963V17.8053C14.2461 17.8473 14.2461 17.8643 14.2441 17.8833C14.2451 18.0073 14.2081 18.1283 14.1291 18.2373C14.0911 18.2913 14.0401 18.3433 13.9831 18.4003C13.8631 18.5183 13.7391 18.6403 13.6881 18.9973C13.6721 19.1093 13.6691 19.2123 13.6781 19.3043C13.6811 19.3313 13.6791 19.3593 13.6741 19.3863C13.6291 19.6033 13.6641 19.8803 13.7631 20.0763C13.9081 20.3633 14.1031 20.7493 13.8961 21.1113C13.6821 21.4843 13.6461 21.8543 13.6901 21.9863C13.7221 22.0853 13.7971 22.1373 13.9161 22.2143C14.0301 22.2873 14.1721 22.3793 14.2251 22.5523C14.2501 22.6333 14.3771 23.0053 14.4061 23.0843C14.9261 24.4893 15.6771 25.2233 16.2251 25.7583L16.2831 25.8143C17.7521 27.2523 22.3161 29.0893 26.3081 25.1813C26.6481 24.8483 26.7601 24.5233 26.9021 24.1103C26.9501 23.9703 27.0011 23.8243 27.0621 23.6713C27.1491 23.4543 27.3071 23.2633 27.5441 23.0853C27.7391 22.9393 27.7991 22.5353 27.7091 21.9763C27.6411 21.5563 27.7601 21.1283 28.0361 20.8023C28.2681 20.5283 28.0941 19.9503 28.0521 19.8553C27.9351 19.5883 27.8631 19.4073 27.8091 19.2693C27.7511 19.1233 27.7171 19.0353 27.6691 18.9483C27.6051 18.8353 27.5801 18.7123 27.5961 18.5743C27.5961 18.5713 27.5981 18.5543 27.5991 18.5393C27.5991 18.5373 27.6021 18.5023 27.6031 18.5003C27.6101 18.4553 27.6141 18.4263 27.6151 18.4063C27.6171 18.3743 27.6241 18.3433 27.6361 18.3133C27.6861 18.1963 27.9271 17.5873 27.7431 17.1433C27.6661 16.9553 27.5211 16.8203 27.3011 16.7303C27.2881 16.7253 27.2761 16.7193 27.2641 16.7123C27.1311 16.6663 27.0311 16.5183 27.0661 16.3823C27.0661 16.3803 27.0691 16.3663 27.0711 16.3453C27.1321 15.9753 27.1411 15.4833 26.9741 15.2653C26.9241 15.1993 26.8621 15.1663 26.7731 15.1573C26.4621 15.1253 26.1601 14.9763 25.8771 14.7143C25.8101 14.6513 25.7401 14.6153 25.6691 14.6053C25.3761 14.5633 25.0921 14.4303 24.8691 14.2303C24.5361 13.9313 23.9871 13.5763 23.2611 13.5763C23.2591 13.5763 23.2561 13.5763 23.2531 13.5763C22.9901 13.5763 22.7341 13.5163 22.5131 13.4013C22.3541 13.3193 22.1881 13.3153 22.0031 13.3903C21.9661 13.4053 21.9261 13.4123 21.8871 13.4103C21.8291 13.4073 21.7721 13.3853 21.7271 13.3483C21.5271 13.1833 21.3791 13.2073 21.2841 13.2403C21.2181 13.2633 21.1451 13.2593 21.0821 13.2303C20.9911 13.1873 20.9041 13.1793 20.8111 13.2053C20.6081 13.2613 20.3871 13.2693 20.1341 13.2293C20.0361 13.2133 19.9421 13.2243 19.8461 13.2623C19.6131 13.3533 19.3511 13.3853 19.0871 13.3573C18.3641 13.2793 17.7771 13.5753 17.4131 13.8383C17.1711 14.0123 16.8751 14.1153 16.5781 14.1263C16.5081 14.1293 16.4351 14.1583 16.3621 14.2123C16.0531 14.4423 15.7371 14.5593 15.4231 14.5593H15.4201V14.5553Z" fill="#1A1A1B"/>
<path d="M16.6353 18.2374C16.6333 18.2174 16.6333 18.1994 16.6353 18.1794C16.6323 18.2034 16.6283 18.2284 16.6253 18.2524C16.6273 18.2414 16.6363 18.2214 16.6353 18.2104C16.6153 18.2534 16.6123 18.2624 16.6243 18.2364L16.6313 18.2234C16.6523 18.1774 16.5893 18.2644 16.6233 18.2314C16.6303 18.2244 16.6803 18.1814 16.6403 18.2124C16.6003 18.2434 16.6473 18.2104 16.6573 18.2044C16.6643 18.2004 16.6723 18.1964 16.6793 18.1934C16.6413 18.2084 16.6323 18.2134 16.6523 18.2064C16.6883 18.1974 16.7213 18.1874 16.7583 18.1824L16.6853 18.1924C16.7553 18.1844 16.8253 18.1864 16.8943 18.1954L16.8213 18.1854C16.8643 18.1914 16.9073 18.2004 16.9483 18.2134C16.9733 18.2214 17.0423 18.2564 16.9633 18.2154C16.9823 18.2254 17.0013 18.2334 17.0203 18.2444C17.0273 18.2484 17.0683 18.2804 17.0733 18.2784C17.0683 18.2804 17.0223 18.2334 17.0493 18.2604C17.0573 18.2684 17.0663 18.2754 17.0743 18.2834C17.0803 18.2894 17.0863 18.2964 17.0923 18.3034C17.1153 18.3264 17.0543 18.2474 17.0783 18.2844C17.0903 18.3034 17.1013 18.3224 17.1113 18.3434C17.1393 18.4024 17.2153 18.4534 17.2763 18.4704C17.3423 18.4884 17.4303 18.4804 17.4893 18.4424C17.6253 18.3554 17.6533 18.2054 17.5883 18.0644C17.4573 17.7824 17.1283 17.6574 16.8383 17.6364C16.6723 17.6244 16.4873 17.6534 16.3463 17.7474C16.1893 17.8524 16.0623 18.0394 16.0833 18.2364C16.0913 18.3114 16.1083 18.3764 16.1643 18.4314C16.2123 18.4794 16.2913 18.5154 16.3593 18.5124C16.4953 18.5064 16.6523 18.3904 16.6353 18.2364V18.2374Z" fill="#1A1A1B"/>
<path d="M20.2633 19.1046C20.2633 19.0906 20.2633 19.0786 20.2653 19.0656C20.2623 19.0896 20.2583 19.1146 20.2553 19.1386C20.2583 19.1256 20.2713 19.0896 20.2523 19.1346C20.2333 19.1796 20.2483 19.1476 20.2523 19.1376C20.2643 19.1106 20.2053 19.1856 20.2373 19.1556C20.2463 19.1476 20.2783 19.1206 20.2393 19.1496C20.2033 19.1776 20.2303 19.1566 20.2393 19.1516C20.2803 19.1276 20.2263 19.1496 20.2213 19.1576C20.2313 19.1436 20.2853 19.1416 20.3003 19.1386L20.2273 19.1486C20.2773 19.1436 20.3263 19.1446 20.3763 19.1516L20.3033 19.1416C20.3573 19.1496 20.4103 19.1616 20.4613 19.1796C20.4733 19.1836 20.4843 19.1886 20.4963 19.1926C20.5283 19.2046 20.4353 19.1646 20.4773 19.1856C20.5013 19.1976 20.5253 19.2096 20.5493 19.2236C20.5703 19.2366 20.5903 19.2506 20.6103 19.2636C20.6383 19.2816 20.5593 19.2216 20.5953 19.2516C20.6063 19.2606 20.6173 19.2706 20.6283 19.2806C20.6463 19.2966 20.6633 19.3146 20.6793 19.3316C20.6813 19.3346 20.7083 19.3616 20.7073 19.3646C20.7093 19.3566 20.6633 19.3046 20.6983 19.3546C20.7403 19.4146 20.7903 19.4616 20.8633 19.4816C20.9293 19.4996 21.0173 19.4916 21.0763 19.4536C21.1933 19.3776 21.2643 19.2016 21.1753 19.0756C21.0143 18.8476 20.7773 18.6736 20.4993 18.6166C20.3223 18.5806 20.1413 18.5806 19.9773 18.6646C19.8133 18.7486 19.7013 18.9236 19.7083 19.1036C19.7133 19.2476 19.8313 19.3866 19.9843 19.3796C20.1293 19.3726 20.2663 19.2576 20.2603 19.1036L20.2633 19.1046Z" fill="#1A1A1B"/>
<path d="M23.8442 17.1669C23.8562 17.2499 23.8502 17.2099 23.8502 17.1889C23.8512 17.1319 23.8502 17.2119 23.8462 17.2119C23.8462 17.2119 23.8552 17.1809 23.8562 17.1769C23.8642 17.1459 23.8252 17.2359 23.8482 17.1959C23.8542 17.1849 23.8672 17.1689 23.8712 17.1579C23.8682 17.1669 23.8302 17.2049 23.8562 17.1789C23.8672 17.1679 23.8772 17.1579 23.8882 17.1469C23.9152 17.1209 23.8772 17.1589 23.8682 17.1619C23.8792 17.1579 23.8972 17.1439 23.9072 17.1379C23.9392 17.1189 23.8932 17.1449 23.8832 17.1469C23.9072 17.1429 23.9392 17.1339 23.9622 17.1249C23.9192 17.1299 23.9092 17.1319 23.9302 17.1299C23.9382 17.1299 23.9472 17.1289 23.9552 17.1289C23.9662 17.1289 23.9782 17.1289 23.9892 17.1289C23.9972 17.1289 24.0062 17.1289 24.0142 17.1309C24.0362 17.1329 24.0252 17.1309 23.9832 17.1259C23.9922 17.1319 24.0142 17.1319 24.0252 17.1349C24.0392 17.1379 24.0532 17.1419 24.0662 17.1459C24.0762 17.1489 24.1232 17.1689 24.0812 17.1499C24.0392 17.1309 24.0902 17.1549 24.0952 17.1569C24.1082 17.1629 24.1202 17.1699 24.1322 17.1779C24.1442 17.1859 24.1562 17.1929 24.1682 17.2009C24.2092 17.2269 24.1352 17.1719 24.1602 17.1939C24.1812 17.2129 24.2032 17.2319 24.2232 17.2519C24.2332 17.2619 24.2432 17.2729 24.2522 17.2829L24.2632 17.2959C24.2782 17.3139 24.2782 17.3139 24.2632 17.2949C24.2482 17.2569 24.2652 17.2969 24.2722 17.3079C24.2802 17.3199 24.2882 17.3319 24.2962 17.3439C24.3292 17.3939 24.3572 17.4469 24.3842 17.5009C24.4482 17.6309 24.6432 17.6769 24.7622 17.5999C24.8952 17.5139 24.9292 17.3609 24.8612 17.2219C24.7892 17.0749 24.6932 16.9289 24.5702 16.8199C24.4152 16.6829 24.2372 16.6009 24.0312 16.5799C23.8352 16.5589 23.6432 16.6279 23.4972 16.7579C23.4202 16.8259 23.3662 16.9159 23.3302 17.0119C23.2922 17.1129 23.2952 17.2109 23.3102 17.3159C23.3192 17.3799 23.3852 17.4499 23.4372 17.4809C23.4962 17.5159 23.5842 17.5299 23.6502 17.5089C23.7162 17.4879 23.7812 17.4459 23.8152 17.3819C23.8522 17.3119 23.8542 17.2469 23.8432 17.1689L23.8442 17.1669Z" fill="#1A1A1B"/>
<path d="M21.9191 21.7305C22.0051 21.6645 22.0921 21.5995 22.1861 21.5445C22.2091 21.5305 22.2331 21.5185 22.2571 21.5065C22.2681 21.5015 22.2791 21.4965 22.2901 21.4915C22.3211 21.4765 22.2341 21.5115 22.2821 21.4955C22.3081 21.4865 22.3331 21.4785 22.3591 21.4715C22.3881 21.4645 22.4621 21.4625 22.3731 21.4645C22.4151 21.4635 22.4561 21.4615 22.4991 21.4645C22.5331 21.4675 22.4301 21.4515 22.4771 21.4625C22.4871 21.4645 22.4961 21.4665 22.5061 21.4685C22.5271 21.4735 22.5481 21.4815 22.5691 21.4885C22.6001 21.4995 22.5101 21.4575 22.5491 21.4815C22.5571 21.4865 22.5661 21.4905 22.5741 21.4955C22.5841 21.5015 22.5931 21.5095 22.6041 21.5145C22.6271 21.5265 22.5671 21.4765 22.5811 21.4975C22.5861 21.5055 22.5991 21.5155 22.6061 21.5215C22.6321 21.5445 22.5921 21.5045 22.5891 21.4975C22.5981 21.5185 22.6361 21.5905 22.6011 21.5035C22.6301 21.5735 22.6601 21.6295 22.7281 21.6685C22.7871 21.7035 22.8751 21.7175 22.9411 21.6965C23.0691 21.6555 23.1931 21.4995 23.1341 21.3565C23.0731 21.2085 22.9811 21.0855 22.8351 21.0085C22.7081 20.9415 22.5621 20.9055 22.4191 20.9095C22.1211 20.9185 21.8701 21.0795 21.6411 21.2545C21.5811 21.2995 21.5351 21.3445 21.5141 21.4195C21.4961 21.4855 21.5041 21.5735 21.5421 21.6325C21.6151 21.7455 21.7971 21.8255 21.9201 21.7315L21.9191 21.7305Z" fill="#1A1A1B"/>
<path d="M24.4329 20.8495C24.5109 20.7545 24.5469 20.6635 24.5549 20.5405C24.5569 20.5105 24.5549 20.4805 24.5539 20.4505C24.5539 20.4365 24.5539 20.4225 24.5539 20.4095C24.5539 20.3865 24.5669 20.3405 24.5509 20.4185C24.5599 20.3725 24.5269 20.4605 24.5419 20.4355C24.5579 20.4085 24.4939 20.4825 24.5269 20.4545C24.5639 20.4235 24.4679 20.4855 24.5129 20.4645C24.5229 20.4595 24.5619 20.4395 24.5169 20.4605C24.4719 20.4815 24.5129 20.4635 24.5249 20.4605C24.5369 20.4575 24.5569 20.4565 24.5679 20.4515C24.5529 20.4585 24.4989 20.4585 24.5469 20.4555C24.5619 20.4555 24.5769 20.4545 24.5929 20.4555C24.6059 20.4555 24.6179 20.4555 24.6309 20.4575C24.6379 20.4575 24.6459 20.4585 24.6529 20.4595C24.6719 20.4615 24.6629 20.4595 24.6239 20.4555C24.6299 20.4485 24.7059 20.4705 24.7159 20.4725C24.7829 20.4875 24.8479 20.5085 24.9129 20.5325C24.9609 20.5505 24.8759 20.5145 24.9069 20.5295C24.9209 20.5365 24.9349 20.5425 24.9489 20.5495C24.9819 20.5655 25.0149 20.5835 25.0469 20.6025C25.0739 20.6185 25.0989 20.6355 25.1249 20.6525C25.1329 20.6575 25.1399 20.6635 25.1479 20.6685C25.1639 20.6805 25.1579 20.6755 25.1289 20.6535C25.1429 20.6575 25.1609 20.6795 25.1719 20.6885C25.2819 20.7825 25.4559 20.8045 25.5629 20.6885C25.6579 20.5855 25.6799 20.3975 25.5629 20.2975C25.2969 20.0695 24.9499 19.9075 24.5939 19.9015C24.4239 19.8985 24.2329 19.9485 24.1199 20.0835C24.0419 20.1785 24.0059 20.2855 24.0029 20.4095C24.0029 20.4425 24.0049 20.4755 24.0049 20.5085C24.0049 20.5195 24.0079 20.5885 24.0049 20.5345C24.0089 20.5085 24.0089 20.5055 24.0029 20.5275C24.0099 20.5005 24.0229 20.4775 24.0429 20.4585C23.9949 20.5165 23.9619 20.5755 23.9619 20.6535C23.9619 20.7215 23.9919 20.8025 24.0429 20.8485C24.1439 20.9415 24.3359 20.9675 24.4339 20.8485L24.4329 20.8495Z" fill="#1A1A1B"/>
<path d="M20.4085 16.2945C20.4045 16.2875 20.4015 16.2805 20.3985 16.2725C20.4075 16.2945 20.4175 16.3165 20.4265 16.3385C20.4155 16.3125 20.4085 16.2865 20.4045 16.2585C20.4075 16.2825 20.4115 16.3075 20.4145 16.3315C20.4105 16.2995 20.4105 16.2685 20.4145 16.2365L20.4045 16.3095C20.4095 16.2775 20.4175 16.2475 20.4285 16.2175L20.4005 16.2835C20.4135 16.2535 20.4285 16.2265 20.4485 16.2005C20.4345 16.2195 20.4195 16.2375 20.4055 16.2565C20.4235 16.2345 20.4435 16.2145 20.4655 16.1965L20.4095 16.2395C20.4365 16.2195 20.4635 16.2045 20.4945 16.1905L20.4285 16.2185C20.4685 16.2025 20.5085 16.1915 20.5515 16.1845L20.4785 16.1945C20.5245 16.1885 20.5705 16.1885 20.6165 16.1945L20.5435 16.1845C20.5935 16.1915 20.6415 16.2045 20.6885 16.2235L20.6225 16.1955C20.6685 16.2155 20.7115 16.2405 20.7515 16.2705L20.6955 16.2275C20.7305 16.2555 20.7625 16.2875 20.7905 16.3225L20.7475 16.2665C20.7695 16.2955 20.7875 16.3265 20.8025 16.3605C20.8295 16.4195 20.9075 16.4705 20.9675 16.4875C21.0335 16.5055 21.1215 16.4975 21.1805 16.4595C21.2395 16.4215 21.2915 16.3645 21.3075 16.2945C21.3245 16.2175 21.3115 16.1525 21.2795 16.0815C21.2125 15.9345 21.0795 15.8055 20.9355 15.7335C20.7605 15.6465 20.5775 15.6195 20.3855 15.6545C20.2025 15.6885 20.0195 15.8115 19.9355 15.9815C19.8415 16.1735 19.8395 16.3785 19.9355 16.5705C20.0005 16.7005 20.1935 16.7465 20.3135 16.6695C20.4465 16.5835 20.4815 16.4305 20.4125 16.2915L20.4085 16.2945Z" fill="#1A1A1B"/>
<path d="M17.3613 20.9807C17.3523 20.9547 17.3463 20.9287 17.3413 20.9017C17.3443 20.9257 17.3483 20.9507 17.3513 20.9747C17.3463 20.9367 17.3463 20.8987 17.3513 20.8597C17.3483 20.8837 17.3443 20.9087 17.3413 20.9327C17.3473 20.8907 17.3583 20.8497 17.3743 20.8097L17.3463 20.8757C17.3633 20.8357 17.3843 20.7997 17.4103 20.7647L17.3673 20.8207C17.3923 20.7897 17.4193 20.7627 17.4503 20.7377L17.3943 20.7807C17.4263 20.7567 17.4603 20.7367 17.4963 20.7207L17.4303 20.7487C17.4673 20.7337 17.5053 20.7237 17.5443 20.7187L17.4713 20.7287C17.5153 20.7237 17.5583 20.7237 17.6013 20.7287L17.5283 20.7187C17.5803 20.7257 17.6293 20.7387 17.6773 20.7587L17.6113 20.7307C17.6513 20.7487 17.6883 20.7697 17.7233 20.7957L17.6673 20.7527C17.6983 20.7767 17.7253 20.8037 17.7493 20.8347L17.7063 20.7787C17.7183 20.7937 17.7283 20.8097 17.7383 20.8267C17.8113 20.9517 17.9913 21.0067 18.1163 20.9257C18.2413 20.8447 18.2933 20.6807 18.2153 20.5477C18.0743 20.3087 17.7903 20.1587 17.5133 20.1717C17.3733 20.1787 17.2293 20.2177 17.1163 20.3037C16.9863 20.4017 16.8963 20.5207 16.8383 20.6737C16.7853 20.8127 16.7813 20.9847 16.8303 21.1257C16.8773 21.2617 17.0223 21.3667 17.1703 21.3187C17.3053 21.2747 17.4133 21.1247 17.3633 20.9787L17.3613 20.9807Z" fill="#1A1A1B"/>
<path d="M18.8098 23.6037C18.8288 23.5997 18.8478 23.5957 18.8668 23.5927L18.7938 23.6027C18.8628 23.5937 18.9318 23.5937 19.0008 23.6027L18.9278 23.5927C18.9968 23.6027 19.0638 23.6207 19.1278 23.6477L19.0618 23.6197C19.1258 23.6467 19.1848 23.6807 19.2398 23.7227L19.1838 23.6797C19.2318 23.7177 19.2738 23.7597 19.3108 23.8077L19.2678 23.7517C19.2818 23.7697 19.2938 23.7877 19.3058 23.8077C19.3818 23.9307 19.5558 23.9897 19.6838 23.9067C19.8068 23.8277 19.8648 23.6597 19.7828 23.5287C19.5498 23.1537 19.0888 22.9767 18.6628 23.0707C18.5218 23.1017 18.4258 23.2737 18.4698 23.4107C18.5178 23.5597 18.6588 23.6367 18.8098 23.6037Z" fill="#1A1A1B"/>
<path d="M23.3903 10.1966C20.7563 6.36363 16.2463 7.09363 16.2463 7.09363C13.6083 7.49363 11.7063 9.56863 11.7063 9.56863C11.0133 10.3996 10.5433 11.2806 10.2363 12.1586C10.4593 13.3056 11.2203 14.3696 12.9833 14.9856C12.9363 15.7516 12.9783 16.5916 13.4753 16.0276C13.4783 16.0236 13.0973 15.4486 13.4423 16.2696C13.6693 16.8096 14.4623 15.3666 15.0453 15.4336C15.0623 15.4356 15.0793 15.4376 15.0953 15.4396C15.4223 15.4756 15.7283 15.3106 15.9233 15.0456C16.1503 14.7376 16.4863 14.5286 16.9433 14.4576C17.6553 14.3456 18.8233 14.5196 19.5673 14.5026C20.1673 14.4896 20.7653 14.4256 21.3443 14.2756C25.2643 13.2466 23.3893 10.1976 23.3893 10.1976L23.3903 10.1966Z" fill="#1A1A1B"/>
<path d="M20.8298 9.81831C20.1368 9.81831 19.5378 9.34731 19.3748 8.67331C19.2808 8.28431 19.3428 7.88231 19.5508 7.54031C19.7588 7.19831 20.0878 6.95831 20.4768 6.86331C20.5938 6.83531 20.7128 6.82031 20.8318 6.82031C21.5248 6.82031 22.1228 7.29131 22.2868 7.96531C22.3808 8.35431 22.3188 8.75631 22.1108 9.09831C21.9028 9.44031 21.5738 9.68031 21.1848 9.77531C21.0678 9.80331 20.9488 9.81831 20.8298 9.81831Z" fill="white"/>
<path d="M20.832 7.02114C21.417 7.02114 21.948 7.41914 22.092 8.01214C22.261 8.70814 21.834 9.41014 21.138 9.57914C21.035 9.60414 20.932 9.61614 20.83 9.61614C20.245 9.61614 19.714 9.21814 19.57 8.62514C19.401 7.92914 19.828 7.22714 20.524 7.05814C20.627 7.03314 20.73 7.02114 20.831 7.02114M20.831 6.61914C20.696 6.61914 20.561 6.63514 20.429 6.66714C19.519 6.88814 18.958 7.80914 19.179 8.72014C19.365 9.48414 20.043 10.0181 20.829 10.0181C20.964 10.0181 21.099 10.0021 21.231 9.97014C22.141 9.74914 22.702 8.82814 22.481 7.91714C22.295 7.15214 21.617 6.61914 20.831 6.61914Z" fill="#1A1A1B"/>
<path d="M20.8206 9.12559C21.2878 9.12559 21.6666 8.74683 21.6666 8.27959C21.6666 7.81236 21.2878 7.43359 20.8206 7.43359C20.3534 7.43359 19.9746 7.81236 19.9746 8.27959C19.9746 8.74683 20.3534 9.12559 20.8206 9.12559Z" fill="#1A1A1B"/>
<path d="M20.8179 9.20287C20.6509 9.20287 20.4859 9.15687 20.3389 9.06787C20.1279 8.93987 19.9799 8.73687 19.9219 8.49787C19.8639 8.25787 19.9019 8.01087 20.0309 7.79987C20.1589 7.58887 20.3619 7.44087 20.6009 7.38287C20.8409 7.32487 21.0889 7.36287 21.2989 7.49187C21.5099 7.61987 21.6579 7.82287 21.7159 8.06287C21.7739 8.30287 21.7359 8.54987 21.6079 8.76087C21.4799 8.97187 21.2769 9.11987 21.0369 9.17787C20.9639 9.19587 20.8909 9.20387 20.8179 9.20387V9.20287ZM20.8209 7.51087C20.7599 7.51087 20.6989 7.51787 20.6379 7.53287C20.4389 7.58087 20.2699 7.70487 20.1629 7.87987C20.0559 8.05487 20.0239 8.26187 20.0729 8.46087C20.1209 8.65987 20.2449 8.82887 20.4199 8.93587C20.5959 9.04287 20.8029 9.07487 21.0009 9.02587C21.2009 8.97787 21.3689 8.85487 21.4759 8.67887C21.5829 8.50387 21.6149 8.29687 21.5659 8.09787C21.5169 7.89887 21.3939 7.72987 21.2189 7.62287C21.0969 7.54887 20.9599 7.51087 20.8209 7.51087Z" fill="white"/>
<path d="M17.2143 11.4238C16.5213 11.4238 15.9233 10.9528 15.7593 10.2788C15.5643 9.47578 16.0583 8.66378 16.8613 8.46878C16.9783 8.44078 17.0973 8.42578 17.2163 8.42578C17.9093 8.42578 18.5073 8.89678 18.6713 9.57078C18.8663 10.3738 18.3723 11.1858 17.5693 11.3808C17.4523 11.4088 17.3333 11.4238 17.2143 11.4238Z" fill="white"/>
<path d="M17.2167 8.62661C17.8017 8.62661 18.3327 9.02461 18.4767 9.61761C18.6457 10.3136 18.2187 11.0156 17.5227 11.1846C17.4197 11.2096 17.3167 11.2216 17.2157 11.2216C16.6307 11.2216 16.0997 10.8236 15.9557 10.2306C15.7867 9.53461 16.2137 8.83261 16.9097 8.66361C17.0127 8.63861 17.1157 8.62661 17.2177 8.62661M17.2177 8.22461C17.0827 8.22461 16.9477 8.24061 16.8157 8.27261C15.9057 8.49361 15.3447 9.41461 15.5657 10.3256C15.7517 11.0896 16.4297 11.6236 17.2157 11.6236C17.3507 11.6236 17.4857 11.6076 17.6177 11.5756C18.0587 11.4686 18.4317 11.1956 18.6677 10.8086C18.9037 10.4206 18.9747 9.96461 18.8677 9.52361C18.6817 8.75961 18.0037 8.22561 17.2177 8.22561V8.22461Z" fill="#1A1A1B"/>
<path d="M17.2024 10.7291C17.6697 10.7291 18.0484 10.3503 18.0484 9.88311C18.0484 9.41588 17.6697 9.03711 17.2024 9.03711C16.7352 9.03711 16.3564 9.41588 16.3564 9.88311C16.3564 10.3503 16.7352 10.7291 17.2024 10.7291Z" fill="#1A1A1B"/>
<path d="M17.2004 10.8071C17.0334 10.8071 16.8684 10.7611 16.7214 10.6721C16.5104 10.5441 16.3624 10.3411 16.3044 10.1021C16.1844 9.60706 16.4894 9.10706 16.9834 8.98706C17.4784 8.86706 17.9784 9.17206 18.0984 9.66606C18.2184 10.1611 17.9134 10.6611 17.4184 10.7811C17.3454 10.7991 17.2724 10.8071 17.1994 10.8071H17.2004ZM16.4554 10.0651C16.5034 10.2641 16.6274 10.4331 16.8024 10.5401C16.9774 10.6471 17.1844 10.6791 17.3834 10.6301C17.7954 10.5301 18.0484 10.1141 17.9484 9.70206C17.8484 9.29006 17.4314 9.03706 17.0204 9.13706C16.6094 9.23706 16.3554 9.65306 16.4554 10.0651Z" fill="white"/>
<path d="M22.9885 10.5027C22.9885 10.5027 22.5865 9.86569 21.7535 10.4837C20.9435 11.0847 20.9735 11.2327 18.7205 11.4667C18.3665 11.5037 18.0375 11.7357 17.9485 12.0807C17.8835 12.3327 17.9095 12.6407 18.1515 12.9897C18.8515 13.9997 21.1765 13.5657 22.0505 13.0257C22.9245 12.4857 23.6015 11.4027 22.9895 10.5027H22.9885Z" fill="white"/>
<path d="M19.7371 12.7716C19.5501 12.7716 19.3541 12.7576 19.1501 12.7266C18.9831 12.7016 18.8691 12.5456 18.8941 12.3786C18.9191 12.2126 19.0731 12.0976 19.2421 12.1226C21.0391 12.3956 22.0571 11.0726 22.0671 11.0586C22.1681 10.9236 22.3591 10.8966 22.4941 10.9976C22.6291 11.0986 22.6561 11.2906 22.5551 11.4256C22.5101 11.4856 21.5211 12.7716 19.7371 12.7716Z" fill="#1A1A1B"/>
<path d="M11.913 11.9407C11.729 11.5707 11.396 11.2877 10.993 11.1967C10.316 11.0447 9.172 11.0147 7.759 11.8717C5.448 13.2737 9.113 17.9787 10.771 16.2817C11.555 15.4797 12.016 14.8067 12.284 14.3197C12.542 13.8517 12.562 13.2907 12.341 12.8037L11.912 11.9397L11.913 11.9407Z" fill="white"/>
<path d="M9.91925 16.9513C9.71925 16.9513 9.51025 16.9143 9.29525 16.8393C8.07025 16.4143 6.86925 14.8543 6.72625 13.5013C6.63925 12.6783 6.95025 12.0063 7.60225 11.6113C9.08225 10.7123 10.2993 10.7283 11.0613 10.8993C11.5453 11.0083 11.9553 11.3383 12.1873 11.8053L12.6153 12.6693C12.8793 13.2503 12.8543 13.9193 12.5523 14.4683C12.1933 15.1213 11.6673 15.8033 10.9903 16.4963C10.6963 16.7973 10.3273 16.9513 9.91925 16.9513ZM10.2213 11.4183C9.60925 11.4183 8.82525 11.5823 7.91825 12.1333C7.46725 12.4073 7.27025 12.8463 7.33325 13.4373C7.45025 14.5453 8.50125 15.9183 9.49525 16.2633C9.92625 16.4133 10.2813 16.3473 10.5533 16.0693C11.1823 15.4253 11.6883 14.7693 12.0163 14.1733C12.2263 13.7933 12.2433 13.3283 12.0633 12.9313L11.6393 12.0763C11.4893 11.7753 11.2293 11.5633 10.9263 11.4953C10.7273 11.4503 10.4903 11.4183 10.2213 11.4183Z" fill="#1A1A1B"/>
<path d="M7.17792 14.4009C7.09692 14.4009 7.01592 14.3689 6.95592 14.3049C6.84092 14.1819 6.84592 13.9889 6.96892 13.8739C7.04392 13.8039 8.83492 12.1499 11.9519 11.9149C12.1209 11.9029 12.2669 12.0289 12.2789 12.1959C12.2919 12.3639 12.1649 12.5109 11.9979 12.5229C9.09392 12.7419 7.40392 14.3019 7.38792 14.3179C7.32892 14.3739 7.25392 14.4009 7.17892 14.4009H7.17792Z" fill="#1A1A1B"/>
<path d="M8.24275 16.0022C8.16475 16.0022 8.08675 15.9722 8.02775 15.9132C7.90775 15.7942 7.90775 15.6012 8.02575 15.4812C8.11975 15.3862 10.3478 13.1592 12.2928 12.7052C12.4588 12.6672 12.6208 12.7692 12.6598 12.9332C12.6978 13.0972 12.5958 13.2612 12.4318 13.3002C10.6588 13.7142 8.48175 15.8902 8.45975 15.9122C8.39975 15.9722 8.32175 16.0022 8.24275 16.0022Z" fill="#1A1A1B"/>
<path d="M29.1713 17.6397C28.8723 17.5037 28.6093 17.2907 28.4173 17.0117C27.6043 15.8397 26.9003 13.9837 26.8123 13.1937C26.7013 12.1927 26.4893 11.4367 28.7903 10.3647C29.8213 9.88474 30.5723 9.92774 31.0653 10.0907C31.4393 10.2147 31.7553 10.4717 31.9853 10.7917C33.7483 13.2387 32.8193 15.4907 31.9783 16.7447C31.7663 17.0617 31.4863 17.3187 31.1633 17.4997C30.7443 14.4727 29.5303 12.0137 29.5303 12.0137C30.0283 13.2227 29.4263 16.4297 29.1693 17.6407L29.1713 17.6397Z" fill="white"/>
<path d="M29.1711 17.9459C29.1281 17.9459 29.0851 17.9369 29.0451 17.9189C28.6891 17.7569 28.3851 17.5039 28.1661 17.1869C27.3491 16.0089 26.6041 14.0919 26.5091 13.2289L26.4921 13.0859C26.3591 11.9479 26.4391 11.1249 28.6611 10.0889C29.8171 9.55093 30.6591 9.63593 31.1611 9.80193C31.5801 9.94093 31.9501 10.2219 32.2331 10.6139C34.1371 13.2559 33.0501 15.6959 32.2331 16.9149C31.9981 17.2659 31.6801 17.5599 31.3141 17.7659C31.2261 17.8149 31.1191 17.8179 31.0291 17.7739C30.9381 17.7289 30.8761 17.6419 30.8621 17.5419C30.6761 16.2019 30.3301 14.9699 30.0071 14.0229C29.9311 15.3729 29.6411 16.8939 29.4701 17.7039C29.4511 17.7949 29.3921 17.8719 29.3091 17.9129C29.2661 17.9349 29.2181 17.9459 29.1711 17.9459ZM30.3421 10.2849C29.9091 10.2849 29.4281 10.4049 28.9191 10.6419C26.9301 11.5689 26.9971 12.1439 27.0981 13.0149L27.1151 13.1619C27.1911 13.8439 27.8481 15.6589 28.6671 16.8399C28.7481 16.9579 28.8471 17.0639 28.9581 17.1539C29.2131 15.8619 29.6701 13.1529 29.2491 12.1309C29.1861 11.9789 29.2561 11.8039 29.4061 11.7369C29.5551 11.6689 29.7331 11.7319 29.8051 11.8799C29.8531 11.9769 30.9181 14.1579 31.3901 16.9639C31.5171 16.8489 31.6301 16.7189 31.7251 16.5759C32.6161 15.2479 33.3411 13.1969 31.7371 10.9719C31.5301 10.6839 31.2641 10.4799 30.9681 10.3819C30.7741 10.3179 30.5641 10.2859 30.3411 10.2859L30.3421 10.2849Z" fill="#1A1A1B"/>
<path d="M29.9729 17.8117C29.9639 17.8127 29.9549 17.8117 29.9449 17.8117C29.6749 17.8117 29.4099 17.7507 29.1709 17.6407C29.4269 16.4297 30.0289 13.2227 29.5319 12.0137C29.5319 12.0137 30.7449 14.4737 31.1649 17.4997C30.8069 17.7037 30.3979 17.8137 29.9739 17.8107L29.9729 17.8117Z" fill="#1A1A1B"/>
<path d="M29.986 18.1163H29.972C29.955 18.1163 29.937 18.1163 29.926 18.1163C29.636 18.1163 29.325 18.0473 29.044 17.9183C28.914 17.8583 28.843 17.7173 28.873 17.5773C29.082 16.5913 29.726 13.2853 29.25 12.1303C29.187 11.9783 29.257 11.8033 29.407 11.7363C29.556 11.6683 29.734 11.7313 29.806 11.8793C29.857 11.9813 31.046 14.4183 31.467 17.4583C31.484 17.5823 31.424 17.7033 31.316 17.7653C30.912 17.9953 30.453 18.1163 29.987 18.1163H29.986ZM29.957 17.5053C29.965 17.5053 29.975 17.5053 29.986 17.5053C30.278 17.5053 30.566 17.4443 30.831 17.3263C30.64 16.0703 30.313 14.9183 30.007 14.0223C29.938 15.2403 29.696 16.5973 29.523 17.4453C29.661 17.4843 29.804 17.5043 29.946 17.5053C29.95 17.5053 29.953 17.5053 29.956 17.5053H29.957Z" fill="#1A1A1B"/>
<path d="M30.7482 16.3411C30.7042 16.3411 30.6582 16.3311 30.6162 16.3111C30.4642 16.2381 30.4002 16.0551 30.4742 15.9031L31.3842 14.0171C31.4582 13.8651 31.6402 13.8021 31.7912 13.8751C31.9432 13.9481 32.0072 14.1311 31.9332 14.2831L31.0232 16.1691C30.9702 16.2781 30.8612 16.3421 30.7482 16.3421V16.3411Z" fill="#1A1A1B"/>
<path d="M30.2413 15.1897C30.1973 15.1897 30.1513 15.1797 30.1093 15.1597C29.9573 15.0867 29.8933 14.9037 29.9673 14.7517L30.8773 12.8657C30.9513 12.7137 31.1343 12.6507 31.2843 12.7237C31.4363 12.7967 31.5003 12.9797 31.4263 13.1317L30.5163 15.0177C30.4633 15.1267 30.3543 15.1907 30.2413 15.1907V15.1897Z" fill="#1A1A1B"/>
<path d="M29.8063 14.0491C29.7623 14.0491 29.7163 14.0391 29.6733 14.0191C29.5213 13.9461 29.4583 13.7631 29.5313 13.6111L30.4413 11.7251C30.5153 11.5731 30.6973 11.5101 30.8493 11.5831C31.0013 11.6561 31.0643 11.8391 30.9913 11.9911L30.0813 13.8771C30.0283 13.9861 29.9193 14.0501 29.8063 14.0501V14.0491Z" fill="#1A1A1B"/>
<path d="M29.9366 14.4658C29.8466 14.4658 29.7576 14.4258 29.6966 14.3498L28.3966 12.7088C28.2926 12.5768 28.3146 12.3848 28.4466 12.2798C28.5786 12.1748 28.7706 12.1978 28.8756 12.3298L30.1756 13.9708C30.2796 14.1028 30.2576 14.2948 30.1256 14.3998C30.0696 14.4438 30.0026 14.4658 29.9366 14.4658Z" fill="#1A1A1B"/>
<path d="M29.9104 15.3817C29.8394 15.3817 29.7674 15.3567 29.7094 15.3067L28.1914 13.9827C28.0644 13.8717 28.0514 13.6787 28.1624 13.5517C28.2734 13.4247 28.4664 13.4117 28.5934 13.5227L30.1114 14.8467C30.2384 14.9577 30.2514 15.1507 30.1404 15.2777C30.0804 15.3467 29.9954 15.3827 29.9104 15.3827V15.3817Z" fill="#1A1A1B"/>
<path d="M29.7 16.4398C29.623 16.4398 29.546 16.4108 29.487 16.3528L28.057 14.9588C27.936 14.8408 27.934 14.6478 28.052 14.5268C28.169 14.4058 28.363 14.4038 28.484 14.5208L29.914 15.9148C30.035 16.0328 30.037 16.2258 29.919 16.3468C29.859 16.4078 29.78 16.4388 29.7 16.4388V16.4398Z" fill="#1A1A1B"/>
</g>
<defs>
<clipPath id="clip0_1497_31412">
<rect width="40" height="40" fill="white"/>
</clipPath>
</defs>
</svg>
